# xmcd CD database file
#
# Track frame offsets:
#	150
#	16462
#	32487
#	53502
#	64162
#	82130
#	94492
#	111705
#	132835
#	146805
#	169122
#
# Disc length: 2500 seconds
#
# Revision: 2
# Processed by: cddbd v1.5.2PL0 Copyright (c) Steve Scherf et al.
# Submitted via: CDex 1.70beta2
#
DISCID=9e09c20b
DTITLE=LeAnn Rimes - You light up my life
DYEAR=1997
DGENRE=Country
TTITLE0=You Light Up My Life
TTITLE1=The Rose
TTITLE2=Bridge Over Troubled Water
TTITLE3=I Believe
TTITLE4=Ten Thousand Angles Cried
TTITLE5=Clinging To A Saving Hand
TTITLE6=On The Side Of Angels
TTITLE7=I Know Who Holds Tomorrow
TTITLE8=God Bless America
TTITLE9=How Do I Live (Extended Mix)
TTITLE10=Amazing Grace
EXTD=YEAR: 1997
EXTT0=
EXTT1=
EXTT2=
EXTT3=
EXTT4=
EXTT5=
EXTT6=
EXTT7=
EXTT8=
EXTT9=
EXTT10=
PLAYORDER=
